<svg xmlns="http://www.w3.org/2000/svg" xmlns:xlink="http://www.w3.org/1999/xlink" version="1.1" x="0px" y="0px" viewBox="0 0 283.465 354.33124999999995" enable-background="new 0 0 283.465 283.465" xml:space="preserve"><path d="M78.612,88.489c0.88,0,1.597-0.714,1.597-1.596v-17.83c0-0.728-0.5-1.318-1.168-1.51c0.668-0.191,1.168-0.78,1.168-1.51  v-3.309c0-0.883-0.719-1.596-1.597-1.596c-0.886,0-1.597,0.713-1.597,1.596v3.309c0,0.729,0.494,1.317,1.16,1.51  c-0.666,0.191-1.16,0.781-1.16,1.51v17.83C77.016,87.775,77.727,88.489,78.612,88.489z M78.612,53.497  c0.88,0,1.597-0.713,1.597-1.596v-3.31c0-0.882-0.719-1.597-1.597-1.597c-0.886,0-1.597,0.715-1.597,1.597v3.31  C77.016,52.784,77.727,53.497,78.612,53.497z M69.569,65.931c0.88,0,1.596-0.714,1.596-1.596v-3.199  c0-0.883-0.717-1.596-1.596-1.596c-0.886,0-1.597,0.714-1.597,1.596v3.199C67.972,65.218,68.684,65.931,69.569,65.931z   M60.526,35.938c0.886,0,1.597-0.715,1.597-1.597V24.63c0-0.882-0.711-1.596-1.597-1.596c-0.88,0-1.597,0.714-1.597,1.596v9.712  C58.93,35.224,59.646,35.938,60.526,35.938z M69.569,58.733c0.88,0,1.596-0.713,1.596-1.596V30.969c0-0.882-0.717-1.596-1.596-1.596  c-0.886,0-1.597,0.714-1.597,1.596v26.168C67.972,58.021,68.684,58.733,69.569,58.733z M87.654,39.267  c0.88,0,1.597-0.715,1.597-1.596V32.21c0-0.884-0.718-1.597-1.597-1.597c-0.885,0-1.596,0.714-1.596,1.597v5.461  C86.058,38.552,86.769,39.267,87.654,39.267z M96.703,57.824c-0.879,0-1.596,0.714-1.596,1.595l-0.006,10.773  c0,0.881,0.711,1.598,1.596,1.598c0.881,0,1.596-0.714,1.596-1.595l0.008-10.772C98.3,58.539,97.583,57.824,96.703,57.824z   M87.654,63.493c0.88,0,1.597-0.714,1.597-1.596V42.021c0-0.882-0.718-1.596-1.597-1.596c-0.885,0-1.596,0.714-1.596,1.596v19.877  C86.058,62.779,86.769,63.493,87.654,63.493z M78.612,44.851c0.88,0,1.597-0.715,1.597-1.597V24.63c0-0.882-0.719-1.596-1.597-1.596  c-0.886,0-1.597,0.714-1.597,1.596v18.623C77.016,44.136,77.727,44.851,78.612,44.851z M51.484,65.401  c0.885,0,1.596-0.714,1.596-1.596v-3.813c0-0.882-0.711-1.596-1.596-1.596c-0.881,0-1.597,0.714-1.597,1.596v3.813  C49.888,64.688,50.604,65.401,51.484,65.401z M42.441,21.437c-1.76,0-3.193,1.43-3.193,3.192v234.2c0,1.765,1.434,3.194,3.193,3.194  c1.764,0,3.191-1.43,3.191-3.194V24.63C45.634,22.866,44.205,21.437,42.441,21.437z M51.484,86.226c0.885,0,1.596-0.714,1.596-1.596  V68.337c0-0.883-0.711-1.596-1.596-1.596c-0.881,0-1.597,0.714-1.597,1.596V84.63C49.888,85.512,50.604,86.226,51.484,86.226z   M51.484,236.235c-0.881,0-1.597,0.715-1.597,1.595v21.002c0,0.884,0.718,1.597,1.597,1.597c0.885,0,1.596-0.713,1.596-1.597V237.83  C53.081,236.95,52.369,236.235,51.484,236.235z M51.484,225.897c-0.881,0-1.597,0.715-1.597,1.598v6.905  c0,0.882,0.718,1.598,1.597,1.598c0.885,0,1.596-0.716,1.596-1.598v-6.905C53.081,226.612,52.369,225.897,51.484,225.897z   M60.526,73.856c0.886,0,1.597-0.715,1.597-1.596v-30.24c0-0.882-0.711-1.596-1.597-1.596c-0.88,0-1.597,0.714-1.597,1.596v30.24  C58.93,73.142,59.646,73.856,60.526,73.856z M98.307,51.905c0-0.883-0.719-1.6-1.597-1.6c-0.886,0-1.596,0.715-1.596,1.596  l-0.007,2.928c0,0.883,0.717,1.598,1.596,1.598c0.885,0,1.597-0.713,1.597-1.595L98.307,51.905z M60.526,87.706  c0.886,0,1.597-0.713,1.597-1.596v-5.073c0-0.884-0.711-1.597-1.597-1.597c-0.88,0-1.597,0.715-1.597,1.597v5.073  C58.93,86.993,59.646,87.706,60.526,87.706z M51.484,49.277c0.885,0,1.596-0.715,1.596-1.597V24.63c0-0.882-0.711-1.596-1.596-1.596  c-0.881,0-1.597,0.714-1.597,1.596v23.051C49.888,48.562,50.604,49.277,51.484,49.277z M150.944,33.642  c0.886,0,1.595-0.713,1.595-1.596v-4.33c0-0.882-0.711-1.596-1.595-1.596c-0.881,0-1.598,0.714-1.598,1.596v4.33  C149.347,32.93,150.063,33.642,150.944,33.642z M178.07,52.001c0.887,0,1.597-0.715,1.597-1.596V39.132  c0-0.881-0.71-1.596-1.597-1.596c-0.878,0-1.595,0.715-1.595,1.596v11.273C176.476,51.286,177.192,52.001,178.07,52.001z   M169.028,52.001c0.884,0,1.595-0.715,1.595-1.596v-2.723c0-0.883-0.711-1.597-1.595-1.597c-0.879,0-1.598,0.714-1.598,1.597v2.723  C167.431,51.286,168.149,52.001,169.028,52.001z M169.028,36.33c0.884,0,1.595-0.714,1.595-1.597v-9.894  c0-0.882-0.711-1.596-1.595-1.596c-0.879,0-1.598,0.714-1.598,1.596v9.894C167.431,35.614,168.149,36.33,169.028,36.33z   M159.985,43.671c0.885,0,1.596-0.715,1.596-1.596V24.629c0-0.883-0.711-1.596-1.596-1.596c-0.879,0-1.597,0.714-1.597,1.596v17.446  C158.389,42.956,159.106,43.671,159.985,43.671z M187.113,65.073c0.879,0,1.596-0.714,1.596-1.596v-3.057  c0-0.883-0.717-1.597-1.596-1.597c-0.886,0-1.596,0.714-1.596,1.597v3.057C185.518,64.359,186.228,65.073,187.113,65.073z   M178.07,36.538c0.887,0,1.597-0.715,1.597-1.597V32.21c0-0.884-0.71-1.597-1.597-1.597c-0.878,0-1.595,0.714-1.595,1.597v2.731  C176.476,35.821,177.192,36.538,178.07,36.538z M187.113,54.139c0.879,0,1.596-0.714,1.596-1.597V24.63  c0-0.882-0.717-1.596-1.596-1.596c-0.886,0-1.596,0.714-1.596,1.596v27.912C185.518,53.425,186.228,54.139,187.113,54.139z   M159.985,48.46c0.885,0,1.596-0.715,1.596-1.597v-1.044c0-0.883-0.711-1.597-1.596-1.597c-0.879,0-1.597,0.714-1.597,1.597v1.044  C158.389,47.745,159.106,48.46,159.985,48.46z M132.861,35.687c0.88,0,1.596-0.714,1.596-1.596v-2.128  c0-0.883-0.717-1.596-1.596-1.596c-0.886,0-1.597,0.714-1.597,1.596v2.128C131.265,34.973,131.976,35.687,132.861,35.687z   M51.484,207.694c-0.881,0-1.597,0.715-1.597,1.598v3.454c0,0.882,0.718,1.597,1.597,1.597c0.885,0,1.596-0.715,1.596-1.597v-3.454  C53.081,208.409,52.369,207.694,51.484,207.694z M105.732,50.653c0.886,0,1.596-0.714,1.596-1.596V32.814  c0-0.882-0.71-1.597-1.596-1.597c-0.879,0-1.596,0.715-1.596,1.597v16.243C104.137,49.94,104.854,50.653,105.732,50.653z   M114.775,34.633c0.885,0,1.596-0.714,1.596-1.597v-5.372c0-0.881-0.711-1.596-1.596-1.596c-0.879,0-1.596,0.714-1.596,1.596v5.372  C113.18,33.919,113.896,34.633,114.775,34.633z M105.732,56.427c0.886,0,1.596-0.713,1.596-1.596v-1.465  c0-0.884-0.71-1.596-1.596-1.596c-0.879,0-1.596,0.713-1.596,1.596v1.465C104.137,55.714,104.854,56.427,105.732,56.427z   M105.732,29.995c0.886,0,1.596-0.714,1.596-1.596v-1.466c0-0.881-0.71-1.596-1.596-1.596c-0.879,0-1.596,0.715-1.596,1.596v1.466  C104.137,29.281,104.854,29.995,105.732,29.995z M123.818,45.652c0.886,0,1.597-0.714,1.597-1.597V24.629  c0-0.883-0.711-1.596-1.597-1.596c-0.879,0-1.596,0.714-1.596,1.596v19.427C122.223,44.938,122.939,45.652,123.818,45.652z   M141.907,44.851c0.879,0,1.597-0.715,1.597-1.597V24.63c0-0.883-0.718-1.596-1.597-1.596c-0.886,0-1.596,0.714-1.596,1.596v18.624  C140.311,44.136,141.021,44.851,141.907,44.851z M96.721,45.651h0.006c0.887-0.004,1.597-0.721,1.591-1.604l-0.074-19.426  c0-0.88-0.718-1.59-1.597-1.59c-0.973-0.05-1.596,0.719-1.596,1.603l0.074,19.426C95.133,44.94,95.843,45.651,96.721,45.651z   M154.959,154.21c0,11.889,7.683,21.562,17.132,21.562c9.441,0,17.125-9.674,17.125-21.562c0-11.892-7.684-21.566-17.125-21.566  C162.642,132.644,154.959,142.318,154.959,154.21z M173.269,135.914c7.134,0.799,12.754,8.69,12.754,18.296  c0,10.127-6.249,18.368-13.932,18.368c-2.427,0-4.703-0.823-6.687-2.262c7.347-1.578,12.958-9.753,12.958-19.65  C178.362,144.815,176.394,139.566,173.269,135.914z M96.691,233.998c-0.879,0-1.597,0.713-1.597,1.595v23.239  c0,0.884,0.718,1.597,1.597,1.597c0.887,0,1.596-0.713,1.596-1.597v-23.239C98.287,234.711,97.576,233.998,96.691,233.998z   M123.818,254.79c-0.879,0-1.596,0.715-1.596,1.598v1.646c0,0.882,0.717,1.597,1.596,1.597c0.886,0,1.597-0.715,1.597-1.597v-1.646  C125.415,255.505,124.704,254.79,123.818,254.79z M141.907,250.267c-0.886,0-1.596,0.716-1.596,1.596v6.97  c0,0.884,0.71,1.597,1.596,1.597c0.879,0,1.597-0.713,1.597-1.597v-6.97C143.504,250.982,142.786,250.267,141.907,250.267z   M150.944,254.511c-0.881,0-1.598,0.713-1.598,1.595v2.727c0,0.882,0.717,1.597,1.598,1.597c0.886,0,1.595-0.715,1.595-1.597v-2.727  C152.539,255.224,151.828,254.511,150.944,254.511z M105.732,240.188c-0.879,0-1.596,0.715-1.596,1.598v7.149  c0,0.883,0.717,1.598,1.596,1.598c0.886,0,1.596-0.715,1.596-1.598v-7.149C107.33,240.901,106.618,240.188,105.732,240.188z   M105.732,251.73c-0.879,0-1.596,0.712-1.596,1.597v4.594c0,0.882,0.717,1.598,1.596,1.598c0.886,0,1.596-0.716,1.596-1.598v-4.594  C107.33,252.442,106.618,251.73,105.732,251.73z M51.484,202.375c-0.881,0-1.597,0.715-1.597,1.597v1.728  c0,0.882,0.718,1.595,1.597,1.595c0.885,0,1.596-0.713,1.596-1.595v-1.728C53.081,203.09,52.369,202.375,51.484,202.375z   M114.775,245.876c-0.879,0-1.596,0.715-1.596,1.597v2.265c0,0.728,0.498,1.315,1.164,1.509c-0.666,0.193-1.164,0.778-1.164,1.509  v5.28c0,0.882,0.717,1.595,1.596,1.595c0.885,0,1.596-0.713,1.596-1.595v-5.28c0-0.73-0.493-1.315-1.16-1.509  c0.667-0.193,1.16-0.779,1.16-1.509v-2.265C116.373,246.591,115.66,245.876,114.775,245.876z M132.861,242.952  c-0.886,0-1.597,0.715-1.597,1.597v2.088c0,0.627,0.368,1.157,0.893,1.415c-0.524,0.262-0.893,0.792-0.893,1.419v9.361  c0,0.884,0.711,1.597,1.597,1.597c0.88,0,1.596-0.713,1.596-1.597v-9.361c0-0.627-0.367-1.155-0.897-1.419  c0.53-0.258,0.897-0.788,0.897-1.415v-2.088C134.457,243.665,133.741,242.952,132.861,242.952z M187.113,230.885  c-0.886,0-1.596,0.715-1.596,1.595v10.138c0,0.883,0.71,1.598,1.596,1.598c0.879,0,1.596-0.715,1.596-1.598v-10.138  C188.709,231.6,187.992,230.885,187.113,230.885z M243.072,121.118l-43.724-36.5V24.63c0-1.763-1.428-3.192-3.192-3.192  c-1.766,0-3.194,1.43-3.194,3.192v54.658l-4.253-3.55v-7.734c0-0.882-0.717-1.597-1.596-1.597c-0.886,0-1.596,0.715-1.596,1.597  v5.069l-5.851-4.881v-8.852c0-0.883-0.71-1.596-1.595-1.596c-0.88,0-1.597,0.715-1.597,1.596v6.186l-3.08-2.574  c-0.138-0.109-0.293-0.156-0.436-0.242c-0.119-0.071-0.207-0.178-0.33-0.234l-2.002-0.872v-7.308c0-0.882-0.711-1.596-1.597-1.596  c-0.879,0-1.596,0.714-1.596,1.596v5.912l-5.851-2.555v-4.1c0-0.883-0.71-1.596-1.596-1.596c-0.879,0-1.596,0.714-1.596,1.596v2.705  l-5.851-2.557V42.487c0-0.881-0.71-1.596-1.595-1.596c-0.879,0-1.597,0.715-1.597,1.596v9.82l-5.844-2.555V47.68  c0-0.883-0.717-1.597-1.596-1.597c-0.886,0-1.597,0.715-1.597,1.597v0.679l-5.858-2.553v-7.69c0-0.882-0.717-1.596-1.596-1.596  c-0.886,0-1.597,0.714-1.597,1.596v6.294l-1.085-0.474c-1.233-0.534-2.619-0.224-3.518,0.669l-0.012-0.009L116.373,54.79v-4.083  c0-0.735-0.505-1.326-1.186-1.514c0.681-0.184,1.186-0.776,1.186-1.511v-8.154c0-0.882-0.711-1.596-1.596-1.596  c-0.879,0-1.597,0.714-1.597,1.596v8.154c0,0.734,0.504,1.327,1.185,1.511c-0.681,0.188-1.185,0.778-1.185,1.514v7.25l-5.851,5.8  v-3.735c0-0.883-0.71-1.597-1.596-1.597c-0.878,0-1.596,0.715-1.596,1.597v6.901L89.254,81.69V73.59  c0-0.884-0.719-1.597-1.597-1.597c-0.886,0-1.597,0.715-1.597,1.597v11.267L71.168,99.625V84.633c0-0.884-0.717-1.597-1.596-1.597  c-0.885,0-1.596,0.715-1.596,1.597v18.159l-5.85,5.801V91.814c0-0.884-0.711-1.597-1.596-1.597c-0.88,0-1.597,0.715-1.597,1.597  v19.944l-5.849,5.799V89.955c0-0.882-0.711-1.597-1.597-1.597c-0.88,0-1.597,0.715-1.597,1.597v62.483  c0,0.883,0.718,1.596,1.597,1.596c0.886,0,1.597-0.713,1.597-1.596v-30.348l5.849,5.897V138.2c0,0.882,0.711,1.598,1.597,1.598  c0.88,0,1.596-0.716,1.596-1.598v-7.001c0.23,0.229,0.492,0.427,0.785,0.576l5.064,2.577v6.155c0,0.883,0.711,1.598,1.596,1.598  c0.881,0,1.596-0.715,1.596-1.598v-4.529l3.2,1.632v76.328c0,0.123,0.056,0.224,0.068,0.341c0.037,0.297,0.062,0.59,0.175,0.86  c0.081,0.197,0.225,0.356,0.336,0.534c0.113,0.165,0.193,0.344,0.33,0.49c0.219,0.218,0.486,0.374,0.756,0.524  c0.094,0.053,0.154,0.134,0.248,0.178l0.032,0.011c0.005,0.005,0.005,0.005,0.012,0.007l9.729,4.251v7.281  c0,0.883,0.717,1.596,1.596,1.596c0.885,0,1.596-0.713,1.596-1.596v-5.889l5.85,2.559v4.248c0,0.882,0.718,1.597,1.596,1.597  c0.887,0,1.597-0.715,1.597-1.597v-2.855l5.85,2.559v9.392c0,0.882,0.718,1.595,1.596,1.595c0.886,0,1.597-0.713,1.597-1.595v-7.999  l5.85,2.554v5.445c0,0.882,0.717,1.595,1.596,1.595c0.885,0,1.596-0.713,1.596-1.595v-4.048l2.352,1.025  c0.023,0.009,0.044,0.006,0.068,0.013c0.381,0.158,0.779,0.253,1.197,0.253c0.007,0,0.007,0.002,0.012,0.002  c0.113,0,0.22-0.006,0.325-0.015l1.896-0.194v17.29c0,0.883,0.717,1.598,1.598,1.598c0.884,0,1.594-0.715,1.594-1.598v-17.613  l5.851-0.596v2.694c0,0.883,0.711,1.598,1.596,1.598c0.88,0,1.597-0.715,1.597-1.598v-3.018l5.853-0.592v13.845  c0,0.882,0.711,1.595,1.597,1.595c0.88,0,1.596-0.713,1.596-1.595v-14.173l5.845-0.592v1.63c0,0.883,0.717,1.598,1.595,1.598  c0.887,0,1.598-0.715,1.598-1.598v-1.955l5.849-0.595v10.829c0,0.882,0.718,1.597,1.596,1.597c0.886,0,1.597-0.715,1.597-1.597  v-11.152l14.893-1.516v5.568c0,0.882,0.717,1.595,1.595,1.595c0.886,0,1.598-0.713,1.598-1.595v-5.895l13.295-1.353v30.561  c0,1.767,1.429,3.194,3.194,3.194c1.763,0,3.192-1.428,3.192-3.194v-31.207l21.839-2.223c1.628-0.165,2.869-1.54,2.869-3.177  v-88.846l7.577,2.999c0.044,0.016,0.088,0.009,0.132,0.024c0.187,0.065,0.381,0.081,0.578,0.112  c0.157,0.021,0.312,0.088,0.469,0.088c0.058,0,0.107-0.024,0.163-0.024c0.119-0.007,0.23-0.033,0.343-0.051  c0.262-0.044,0.513-0.116,0.748-0.218c0.113-0.048,0.219-0.095,0.326-0.154c0.305-0.173,0.586-0.389,0.821-0.664  c0.014-0.016,0.036-0.021,0.051-0.037l0.012-0.018c0.007-0.007,0.014-0.009,0.014-0.014l8.188-9.812  c0.541-0.649,0.805-1.488,0.729-2.332C244.131,122.438,243.728,121.66,243.072,121.118z M60.92,118.78l68.686-68.123l36.154,15.789  L97.064,134.57L60.92,118.78z M116.809,227.604L80.75,211.853v-72.277l24.776,10.819c0.007,0.005,0.013,0,0.019,0.005  c0.387,0.167,0.812,0.26,1.248,0.264h0.012c0.375-0.004,0.736-0.088,1.085-0.215c0.099-0.038,0.192-0.084,0.286-0.13  c0.262-0.126,0.493-0.282,0.711-0.476c0.049-0.04,0.118-0.06,0.162-0.105l7.758-7.695v85.562H116.809z M217.672,219.342  l-94.479,9.604V135.71l49.077-48.672l45.401,37.896V219.342z M232.407,128.913l-58.271-48.64c-1.268-1.057-3.12-0.979-4.298,0.184  l-63.014,62.497l-4.534-4.569l69.237-68.669l65.002,54.258L232.407,128.913z M187.113,245.478c-0.886,0-1.596,0.715-1.596,1.595  v9.003c0,0.882,0.71,1.597,1.596,1.597c0.879,0,1.596-0.715,1.596-1.597v-9.003C188.709,246.192,187.992,245.478,187.113,245.478z   M172.091,183.561c-4.64,0-8.42,4.268-8.838,9.69c-0.036,0.13-0.08,0.253-0.08,0.396v11.939c0,5.885,4.005,10.672,8.924,10.672  c3.941,0,7.266-3.1,8.432-7.356l4.994,2.021c0.219,0.088,0.481,0.161,0.719,0.24c0.822,0.306,1.683,0.517,2.595,0.517  c4.914,0,8.918-4.785,8.918-10.67c0-0.678-0.068-1.331-0.169-1.971c-0.029-0.203-0.08-0.396-0.124-0.595  c-0.088-0.438-0.193-0.857-0.33-1.27c-0.069-0.213-0.143-0.42-0.225-0.624c-0.149-0.392-0.324-0.764-0.511-1.131  c-0.094-0.179-0.175-0.356-0.274-0.528c-0.262-0.442-0.548-0.852-0.862-1.238c-0.048-0.068-0.093-0.142-0.143-0.203  c-0.374-0.446-0.779-0.836-1.209-1.196c-0.125-0.102-0.257-0.181-0.382-0.275c-0.323-0.239-0.66-0.464-1.009-0.653  c-0.164-0.09-0.331-0.169-0.498-0.248c-0.163-0.073-0.312-0.168-0.476-0.229l-16.15-6.536  C174.467,183.94,173.35,183.561,172.091,183.561z M188.835,193.438c0.437,0,0.86,0.077,1.265,0.2c0.257,0.077,0.5,0.185,0.737,0.306  c0.116,0.06,0.242,0.114,0.354,0.188c0.224,0.129,0.438,0.288,0.642,0.457c0.08,0.066,0.168,0.121,0.243,0.193  c0.274,0.253,0.536,0.535,0.773,0.845c0.058,0.071,0.095,0.15,0.149,0.218c0.176,0.256,0.351,0.521,0.499,0.808  c0.069,0.126,0.125,0.26,0.188,0.388c0.117,0.257,0.23,0.521,0.324,0.794c0.056,0.147,0.1,0.295,0.149,0.444  c0.081,0.293,0.149,0.594,0.211,0.904c0.025,0.143,0.058,0.281,0.081,0.427c0.064,0.453,0.105,0.92,0.105,1.401  c0,4.174-2.568,7.577-5.724,7.577c-0.612,0-1.222-0.198-1.814-0.427c-2.27-1.008-3.917-3.817-3.917-7.15  C183.104,196.837,185.674,193.438,188.835,193.438z M179.909,201.009c0,1.681,0.355,3.251,0.938,4.668l-10.29-4.155  c-2.47-0.927-4.19-3.923-4.19-7.296c0-4.178,2.569-7.572,5.726-7.572c0.698,0,1.409,0.246,2.075,0.511l10.708,4.338  C181.944,193.251,179.909,196.837,179.909,201.009z M169.028,239.37c-0.879,0-1.598,0.715-1.598,1.598v15.107  c0,0.882,0.719,1.597,1.598,1.597c0.884,0,1.595-0.715,1.595-1.597v-15.107C170.625,240.085,169.912,239.37,169.028,239.37z   M178.07,239.37c-0.878,0-1.595,0.715-1.595,1.598v17.864c0,0.882,0.717,1.597,1.595,1.597c0.887,0,1.597-0.715,1.597-1.597v-17.864  C179.667,240.085,178.957,239.37,178.07,239.37z M159.985,251.158c-0.879,0-1.597,0.715-1.597,1.597v6.077  c0,0.884,0.718,1.597,1.597,1.597c0.885,0,1.596-0.713,1.596-1.597v-6.077C161.582,251.873,160.871,251.158,159.985,251.158z   M169.028,233.503c-0.879,0-1.598,0.715-1.598,1.598v2.138c0,0.883,0.719,1.598,1.598,1.598c0.884,0,1.595-0.715,1.595-1.598v-2.138  C170.625,234.218,169.912,233.503,169.028,233.503z M150.944,244.481c-0.881,0-1.598,0.715-1.598,1.597v5.784  c0,0.882,0.717,1.597,1.598,1.597c0.886,0,1.595-0.715,1.595-1.597v-5.784C152.539,245.196,151.828,244.481,150.944,244.481z   M60.526,198.38c-0.886,0-1.597,0.715-1.597,1.597v9.315c0,0.882,0.711,1.595,1.597,1.595c0.88,0,1.597-0.713,1.597-1.595v-9.315  C62.123,199.095,61.406,198.38,60.526,198.38z M60.526,169.012c-0.886,0-1.597,0.713-1.597,1.595v21.522  c0,0.881,0.711,1.596,1.597,1.596c0.88,0,1.597-0.715,1.597-1.596v-21.522C62.123,169.725,61.406,169.012,60.526,169.012z   M60.526,161.413c-0.886,0-1.597,0.713-1.597,1.595v3.995c0,0.882,0.711,1.598,1.597,1.598c0.88,0,1.597-0.716,1.597-1.598v-3.995  C62.123,162.126,61.406,161.413,60.526,161.413z M69.569,233.998c-0.886,0-1.597,0.713-1.597,1.595v1.647  c0,0.883,0.711,1.596,1.597,1.596c0.88,0,1.596-0.713,1.596-1.596v-1.647C71.165,234.711,70.449,233.998,69.569,233.998z   M69.569,238.852c-0.886,0-1.597,0.712-1.597,1.595v18.386c0,0.882,0.711,1.597,1.597,1.597c0.88,0,1.596-0.715,1.596-1.597v-18.386  C71.165,239.563,70.449,238.852,69.569,238.852z M60.526,212.343c-0.886,0-1.597,0.715-1.597,1.598v31.319  c0,0.88,0.711,1.598,1.597,1.598c0.88,0,1.597-0.718,1.597-1.598V213.94C62.123,213.058,61.406,212.343,60.526,212.343z   M51.484,158.17c-0.881,0-1.597,0.713-1.597,1.595v33.064c0,0.88,0.718,1.595,1.597,1.595c0.885,0,1.596-0.715,1.596-1.595v-33.064  C53.081,158.883,52.369,158.17,51.484,158.17z M60.526,247.339c-0.886,0-1.597,0.713-1.597,1.595v6.16  c0,0.882,0.711,1.595,1.597,1.595c0.88,0,1.597-0.713,1.597-1.595v-6.16C62.123,248.052,61.406,247.339,60.526,247.339z   M87.648,242.952c-0.88,0-1.596,0.715-1.596,1.597v2.924c0,0.883,0.717,1.598,1.596,1.598c0.885,0,1.596-0.715,1.596-1.598v-2.924  C89.244,243.665,88.533,242.952,87.648,242.952z M69.569,215.41c-0.886,0-1.597,0.713-1.597,1.597v3.859  c0,0.882,0.711,1.597,1.597,1.597c0.88,0,1.596-0.715,1.596-1.597v-3.859C71.165,216.123,70.449,215.41,69.569,215.41z   M78.612,245.291c-0.886,0-1.597,0.715-1.597,1.595v3.779c0,0.883,0.711,1.598,1.597,1.598c0.88,0,1.597-0.715,1.597-1.598v-3.779  C80.209,246.006,79.49,245.291,78.612,245.291z M87.648,249.334c-0.88,0-1.596,0.715-1.596,1.598v7.9  c0,0.884,0.717,1.597,1.596,1.597c0.885,0,1.596-0.713,1.596-1.597v-7.9C89.244,250.049,88.533,249.334,87.648,249.334z   M78.612,219.799c-0.886,0-1.597,0.715-1.597,1.598v19.05c0,0.884,0.711,1.597,1.597,1.597c0.88,0,1.597-0.713,1.597-1.597v-19.05  C80.209,220.514,79.49,219.799,78.612,219.799z M69.569,178.714c-0.886,0-1.597,0.715-1.597,1.597v31.351  c0,0.882,0.711,1.595,1.597,1.595c0.88,0,1.596-0.713,1.596-1.595v-31.351C71.165,179.429,70.449,178.714,69.569,178.714z   M69.569,143.767c-0.886,0-1.597,0.715-1.597,1.597v19.642c0,0.883,0.711,1.598,1.597,1.598c0.88,0,1.596-0.715,1.596-1.598v-19.642  C71.165,144.481,70.449,143.767,69.569,143.767z M78.612,253.497c-0.886,0-1.597,0.715-1.597,1.597v1.696  c0,0.882,0.711,1.595,1.597,1.595c0.88,0,1.597-0.713,1.597-1.595v-1.696C80.209,254.212,79.49,253.497,78.612,253.497z   M171.517,107.438c-0.119-0.062-0.238-0.141-0.362-0.193c-0.312-0.134-0.637-0.24-0.974-0.323c-0.005-0.002-0.012-0.005-0.019-0.007  c-0.693-0.165-1.429-0.213-2.188-0.127c-0.569,0.064-1.104,0.217-1.628,0.408c0,0.001,0,0.001,0,0.001  c-0.007,0.001-0.007,0.001-0.007,0.001c-1.329,0.493-2.47,1.367-3.306,2.484c-0.006,0.012-0.019,0.023-0.025,0.037  c-0.275,0.373-0.511,0.768-0.711,1.186c-0.03,0.054-0.056,0.104-0.081,0.158c-0.168,0.375-0.299,0.768-0.404,1.173  c-0.021,0.079-0.05,0.159-0.068,0.237c-0.102,0.469-0.163,0.947-0.163,1.438c0,0.365,0.037,0.73,0.105,1.094v0.006  c0.175,0.96,0.605,1.904,1.247,2.832c0.031,0.049,0.062,0.102,0.094,0.15c0.131,0.182,0.28,0.358,0.431,0.539  c0.125,0.15,0.244,0.301,0.38,0.448c0.112,0.122,0.231,0.246,0.351,0.368c0.235,0.236,0.473,0.469,0.723,0.69  c0.049,0.048,0.106,0.099,0.161,0.147c2.682,2.342,6.018,3.791,6.622,4.039c0.183,0.074,0.376,0.117,0.563,0.123  c0.316,0.012,0.629-0.068,0.891-0.24c1.006-0.639,9.786-6.41,9.786-12.123c0-3.709-3.012-6.54-6.859-6.113  c-1.491,0.169-2.887,0.826-4.005,1.858C171.892,107.62,171.704,107.534,171.517,107.438z M176.549,109.052  c1.777-0.213,3.192,1.033,3.192,2.818c0,2.828-4.453,6.855-7.684,9.068c-0.25-0.12-0.544-0.266-0.829-0.421  c3.3-3.028,4.982-5.845,4.982-8.384c0-0.996-0.255-1.941-0.687-2.795C175.857,109.2,176.2,109.093,176.549,109.052z"/><text x="0" y="298.465" fill="#000000" font-size="5px" font-weight="bold" font-family="'Helvetica Neue', Helvetica, Arial-Unicode, Arial, Sans-serif">Created by Sergey Demushkin</text><text x="0" y="303.465" fill="#000000" font-size="5px" font-weight="bold" font-family="'Helvetica Neue', Helvetica, Arial-Unicode, Arial, Sans-serif">from the Noun Project</text></svg>